<?xml version="1.0" encoding="UTF-8"?>
<svg version="1.1" xmlns="http://www.w3.org/2000/svg" width="500" height="500">
<path d="M0 0 C165 0 330 0 500 0 C500 165 500 330 500 500 C335 500 170 500 0 500 C0 335 0 170 0 0 Z " fill="#FEFEFE" transform="translate(0,0)"/>
<path d="M0 0 C13 0 13 0 18 3 C19 4 19 4 19.25 7.8125 C19.24309472 11.72089125 19.24309472 11.72089125 17.3125 13.9375 C15.72585745 15.90217214 15.72585745 15.90217214 16.43359375 18.09765625 C16.96825712 19.67094798 17.53631683 21.23337293 18.140625 22.78125 C18.93876959 24.8419142 19.51090928 26.84800082 20 29 C18.02 29 16.04 29 14 29 C13.32591692 27.73308493 12.66099503 26.46129251 12 25.1875 C11.443125 24.12595703 11.443125 24.12595703 10.875 23.04296875 C10 21 10 21 10 18 C8.68 18 7.36 18 6 18 C6 21.63 6 25.26 6 29 C4.02 29 2.04 29 0 29 C0 19.43 0 9.86 0 0 Z " fill="#0C0C0C" transform="translate(309,203)"/>
<path d="M0 0 C5 0 5 0 6.4855957 1.37695312 C6.87835693 2.00537109 7.27111816 2.63378906 7.67578125 3.28125 C8.11083984 3.95800781 8.54589844 4.63476562 8.99414062 5.33203125 C9.42919922 6.04746094 9.86425781 6.76289063 10.3125 7.5 C10.76689453 8.21542969 11.22128906 8.93085938 11.68945312 9.66796875 C12.80881194 11.43537741 13.90652207 13.21646319 15 15 C15.33 10.05 15.66 5.1 16 0 C17.98 0 19.96 0 22 0 C22 9.57 22 19.14 22 29 C17 29 17 29 15.5144043 27.62304688 C14.92526245 26.68041992 14.92526245 26.68041992 14.32421875 25.71875 C13.88916016 25.04199219 13.45410156 24.36523438 13.00585938 23.66796875 C12.57080078 22.95253906 12.13574219 22.23710937 11.6875 21.5 C11.23310547 20.78457031 10.77871094 20.06914062 10.31054688 19.33203125 C9.19118806 17.56462259 8.09347793 15.78353681 7 14 C6.67 18.95 6.34 23.9 6 29 C4.02 29 2.04 29 0 29 C0 19.43 0 9.86 0 0 Z " fill="#101010" transform="translate(204,203)"/>
<path d="M0 0 C2.31 0 4.62 0 7 0 C8.42830852 3.80704999 9.85236055 7.61566157 11.27246094 11.42578125 C11.75631411 12.72211806 12.24133485 14.0180197 12.72753906 15.31347656 C13.42558589 17.17398505 14.11910947 19.03618865 14.8125 20.8984375 C15.44091797 22.57945557 15.44091797 22.57945557 16.08203125 24.29443359 C17 27 17 27 17 29 C14.69 29 12.38 29 10 29 C9.67 27.02 9.34 25.04 9 23 C5.37 23 1.74 23 -2 23 C-2.33 24.98 -2.66 26.96 -3 29 C-4.98 29 -6.96 29 -9 29 C-7.6393319 22.24476394 -5.71290027 15.91424405 -3.375 9.4375 C-3.05015625 8.52419922 -2.7253125 7.61089844 -2.390625 6.66992188 C-1.59846371 4.44488059 -0.8015341 2.22167825 0 0 Z " fill="#0F0F0F" transform="translate(177,203)"/>
<path d="M0 0 C1.98 0 3.96 0 6 0 C6.33 2.97 6.66 5.94 7 9 C7.42410156 8.3503125 7.84820312 7.700625 8.28515625 7.03125 C10.07007046 4.48921834 11.79128531 2.18739505 14 0 C17.9375 -0.5625 17.9375 -0.5625 21 0 C20.57847656 0.53109375 20.15695312 1.0621875 19.72265625 1.609375 C19.17480469 2.31578125 18.62695312 3.0221875 18.0625 3.75 C17.24458984 4.79414063 17.24458984 4.79414063 16.41015625 5.859375 C14.96023221 8.06036773 14.37630279 9.41113208 14 12 C14.58023734 14.07133094 14.58023734 14.07133094 15.65234375 16.109375 C16.01650391 16.86347656 16.38066406 17.61757812 16.75585938 18.39453125 C17.34077148 19.56048828 17.34077148 19.56048828 17.9375 20.75 C18.32357422 21.54277344 18.70964844 22.33554688 19.10742188 23.15234375 C20.06107367 25.10674125 21.0291649 27.05408106 22 29 C19.69 29 17.38 29 15 29 C13.02 25.04 11.04 21.08 9 17 C6.50494038 19.49505962 6.64051624 20.67328888 6.375 24.125 C6.30023438 25.03507812 6.22546875 25.94515625 6.1484375 26.8828125 C6.09945312 27.58148438 6.05046875 28.28015625 6 29 C4.02 29 2.04 29 0 29 C0 19.43 0 9.86 0 0 Z " fill="#0C0C0C" transform="translate(240,203)"/>
<path d="M0 0 C1.98 0 3.96 0 6 0 C6.01981934 0.62567871 6.03963867 1.25135742 6.06005859 1.89599609 C6.15514226 4.72276519 6.26488746 7.54877815 6.375 10.375 C6.4059375 11.35984375 6.436875 12.3446875 6.46875 13.359375 C6.50742187 14.30039063 6.54609375 15.24140625 6.5859375 16.2109375 C6.6173584 17.08024902 6.6487793 17.94956055 6.68115234 18.84521484 C6.81229433 21.20961794 6.81229433 21.20961794 9 23 C12.08347826 23.16681109 12.08347826 23.16681109 15 23 C16.20270964 20.59458071 16.20316663 18.89633409 16.31640625 16.2109375 C16.35830078 15.26992187 16.40019531 14.32890625 16.44335938 13.359375 C16.48267578 12.37453125 16.52199219 11.3896875 16.5625 10.375 C16.60568359 9.38242188 16.64886719 8.38984375 16.69335938 7.3671875 C16.79961069 4.91160162 16.90164964 2.45591297 17 0 C18.98 0 20.96 0 23 0 C23.08767555 3.37483413 23.14061628 6.74937215 23.1875 10.125 C23.21263672 11.07632813 23.23777344 12.02765625 23.26367188 13.0078125 C23.32003407 18.4185834 23.16650796 22.37940796 20 27 C15.55599734 29.96266844 11.21098923 29.76945894 6 29 C3.10316132 26.7984026 1.60702769 25.21405538 0 22 C-0.08426094 20.3325394 -0.10725143 18.66174813 -0.09765625 16.9921875 C-0.09443359 16.00605469 -0.09121094 15.01992187 -0.08789062 14.00390625 C-0.07951172 12.97136719 -0.07113281 11.93882812 -0.0625 10.875 C-0.05798828 9.83472656 -0.05347656 8.79445312 -0.04882812 7.72265625 C-0.03701952 5.14838038 -0.02055075 2.57421854 0 0 Z " fill="#090909" transform="translate(272,203)"/>
<path d="M0 0 C2.875 -0.125 2.875 -0.125 6 0 C6.66 0.66 7.32 1.32 8 2 C7.44444444 6.55555556 7.44444444 6.55555556 6 8 C4.00041636 8.04080783 1.99954746 8.04254356 0 8 C0 5.36 0 2.72 0 0 Z " fill="#F2F2F2" transform="translate(315,208)"/>
<path d="M0 0 C0.33 0 0.66 0 1 0 C1 2.64 1 5.28 1 8 C1.66 8 2.32 8 3 8 C3 8.66 3 9.32 3 10 C2.34 10 1.68 10 1 10 C1 11.32 1 12.64 1 14 C0.34 14 -0.32 14 -1 14 C-1 12.68 -1 11.36 -1 10 C-2.65 10 -4.3 10 -6 10 C-5.67 9.34 -5.34 8.68 -5 8 C-3.02 8.495 -3.02 8.495 -1 9 C-1.020625 7.700625 -1.04125 6.40125 -1.0625 5.0625 C-1.08399454 3.70834367 -1.07148199 2.35243917 -1 1 C-0.67 0.67 -0.34 0.34 0 0 Z " fill="#262626" transform="translate(270,263)"/>
<path d="M0 0 C0.66 0 1.32 0 2 0 C2 3.3 2 6.6 2 10 C2.66 10.33 3.32 10.66 4 11 C1.69 11 -0.62 11 -3 11 C-2.34 10.67 -1.68 10.34 -1 10 C-1.01160156 9.36191406 -1.02320313 8.72382813 -1.03515625 8.06640625 C-1.04417969 7.24011719 -1.05320313 6.41382813 -1.0625 5.5625 C-1.07410156 4.73878906 -1.08570313 3.91507812 -1.09765625 3.06640625 C-1 1 -1 1 0 0 Z " fill="#555555" transform="translate(230,263)"/>
<path d="M0 0 C2.76223278 2.76223278 2.57856291 5.20706617 3 9 C1.35 9 -0.3 9 -2 9 C-1.125 2.25 -1.125 2.25 0 0 Z " fill="#E5E5E5" transform="translate(180,211)"/>
<path d="M0 0 C0.33 0 0.66 0 1 0 C1 2.31 1 4.62 1 7 C-0.32 7 -1.64 7 -3 7 C-2.38722388 4.03824877 -1.74627478 2.61941217 0 0 Z " fill="#BBBBBB" transform="translate(268,265)"/>
</svg>
